<?xml version="1.0" encoding="utf-8"?>
<!-- Generator: Adobe Illustrator 17.0.0, SVG Export Plug-In . SVG Version: 6.00 Build 0)  -->
<!DOCTYPE svg PUBLIC "-//W3C//DTD SVG 1.1//EN" "http://www.w3.org/Graphics/SVG/1.1/DTD/svg11.dtd">
<svg version="1.1" id="Layer_1" xmlns="http://www.w3.org/2000/svg" xmlns:xlink="http://www.w3.org/1999/xlink" x="0px" y="0px"
	 width="1221.841px" height="150.896px" viewBox="0 0 1221.841 150.896" enable-background="new 0 0 1221.841 150.896"
	 xml:space="preserve">
<g>
	<path d="M0.001,96.333c0-31.579,21.985-54.362,52.563-54.362c24.783,0,45.369,15.588,49.166,37.175l-16.188,2.198
		C81.944,66.753,68.154,56.96,52.765,56.96c-20.585,0-36.375,16.19-36.175,39.373c0,23.385,15.389,39.574,35.974,39.574
		c15.789,0,29.18-9.795,33.177-23.984l16.389,2.198c-4.597,21.386-25.382,36.775-49.566,36.775
		C21.986,150.896-0.199,127.912,0.001,96.333z"/>
	<path d="M255.845,45.969h16.589v13.791h1.999c7.195-11.193,18.387-17.589,31.778-17.589c25.582,0,41.971,18.788,41.971,44.37
		v60.358h-16.589V86.54c0-16.988-10.193-29.379-27.581-29.379c-16.988,0-31.578,13.189-31.578,30.778v58.959h-16.589V45.969z"/>
	<path d="M371.574,96.333c0-31.579,22.584-54.362,52.164-54.362c16.189,0,29.579,6.795,36.974,18.987h1.999V0h16.589v146.898H462.71
		V131.31h-1.999c-7.395,12.391-20.385,19.586-36.774,19.586C394.358,150.896,371.574,127.912,371.574,96.333z M463.111,96.333
		c0-22.184-15.789-39.373-37.374-39.373c-21.786,0-37.574,17.189-37.574,39.373c0,22.584,15.988,39.574,37.574,39.574
		C447.321,135.907,463.111,118.519,463.111,96.333z"/>
	<path d="M507.887,14.79c0-6.795,4.997-11.593,11.992-11.593c6.996,0,11.792,4.798,11.792,11.593
		c0,6.994-4.796,11.991-11.792,11.991C512.884,26.781,507.887,21.784,507.887,14.79z M511.484,45.969h16.589v100.93h-16.589V45.969z
		"/>
	<path d="M569.247,120.916V59.16h-16.39V45.969h16.39l3.796-32.578h12.991l-0.2,32.578h25.983V59.16h-25.983v61.157
		c0,9.594,5.997,16.389,15.589,16.389c2.998,0,8.194-0.798,11.992-1.999v13.39c-4.797,1.599-11.391,2.598-16.389,2.598
		C580.039,150.695,569.247,138.704,569.247,120.916z"/>
	<path d="M636.605,14.79c0-6.795,4.997-11.593,11.992-11.593c6.996,0,11.792,4.798,11.792,11.593
		c0,6.994-4.796,11.991-11.792,11.991C641.602,26.781,636.605,21.784,636.605,14.79z M640.202,45.969h16.589v100.93h-16.589V45.969z
		"/>
	<path d="M817.493,45.969h16.588v13.791h1.999c7.195-11.193,18.387-17.589,31.78-17.589c25.582,0,41.971,18.788,41.971,44.37v60.358
		h-16.59V86.54c0-16.988-10.193-29.379-27.581-29.379c-16.988,0-31.579,13.189-31.579,30.778v58.959h-16.588V45.969z"/>
	<path d="M934.02,112.721h15.991c0.199,14.39,11.392,24.183,30.378,24.183c15.19,0,24.983-6.394,24.983-16.988
		c0-13.191-13.791-14.188-28.981-16.187c-18.785-2.2-40.571-7.195-40.571-30.179c0-19.588,16.389-31.579,40.571-31.579
		c25.184,0,42.371,13.39,42.371,34.177h-16.19c-0.199-12.391-10.792-20.187-26.38-20.187c-14.591,0-24.583,6.596-24.583,16.988
		c0,12.592,13.589,13.592,28.581,15.392c18.987,2.397,40.77,7.195,40.77,31.378c0,19.787-15.389,31.179-41.17,31.179
		C950.809,150.896,934.02,136.705,934.02,112.721z"/>
	<path d="M1042.154,138.505c0-6.397,4.398-10.994,10.991-10.994c6.397,0,10.994,4.597,10.994,10.994
		c0,6.394-4.597,10.991-10.994,10.991C1046.552,149.496,1042.154,144.899,1042.154,138.505z"/>
	<path d="M1081.529,121.316c0-17.788,15.19-30.98,45.171-34.376l27.979-3.398v-3.998c0-13.589-9.793-22.383-26.38-22.383
		c-15.19,0-25.182,7.394-24.983,19.986h-16.789c0-21.386,16.59-34.977,41.971-34.977c26.182,0,42.771,14.79,42.771,37.774v66.954
		h-16.59v-14.79h-1.798c-7.195,11.593-18.987,17.987-35.176,17.987C1095.921,150.096,1081.529,138.704,1081.529,121.316z
		 M1154.679,106.725v-8.992l-27.979,3.197c-20.585,2.598-28.581,10.593-28.581,19.986c0,9.594,8.393,15.389,21.985,15.389
		C1140.689,136.305,1154.679,123.715,1154.679,106.725z"/>
	<path d="M1198.056,14.79c0-6.795,4.997-11.593,11.993-11.593c6.994,0,11.792,4.798,11.792,11.593
		c0,6.994-4.798,11.991-11.792,11.991C1203.053,26.781,1198.056,21.784,1198.056,14.79z M1201.654,45.969h16.59v100.93h-16.59
		V45.969z"/>
	<path d="M737.937,41.971c-30.079,0-54.463,24.384-54.463,54.463s24.384,54.463,54.463,54.463c30.079,0,54.462-24.384,54.462-54.463
		S768.016,41.971,737.937,41.971z M737.937,135.391c-21.516,0-38.957-17.442-38.957-38.957c0-21.516,17.442-38.957,38.957-38.957
		c21.515,0,38.957,17.442,38.957,38.957C776.894,117.949,759.453,135.391,737.937,135.391z"/>
	<g>
		<path d="M233.822,52.714c-5.192,3.369-10.056,6.743-14.681,10.128c-4.32,3.162-8.383,6.339-12.253,9.531
			c-0.396,0.326-0.801,0.652-1.193,0.979c-0.204,0.17-0.419,0.34-0.621,0.51c-6.227,5.234-11.878,10.524-17.072,15.894
			c-0.694,0.718-1.413,1.432-2.091,2.152c-7.237,7.697-13.543,15.576-19.198,23.725c-0.833,1.2-1.634,2.414-2.439,3.626
			c-2.435,3.665-4.753,7.391-6.97,11.178c-2.602,4.443-5.077,8.977-7.452,13.612c4.102,2.282,8.527,4.052,13.193,5.218
			c4.069-3.913,11.775-11.257,11.775-11.257c0.24-0.884,0.519-1.769,0.79-2.653c6.485-21.17,21.526-42.274,34.709-57.863
			c3.129,5.609,4.927,12.061,4.927,18.94c0,16.916-10.802,31.273-25.868,36.655l-15.416,17.749c0.772,0.032,1.546,0.059,2.326,0.059
			c30.079,0,54.463-24.384,54.463-54.463c0-11.516-3.584-22.19-9.684-30.988C228.531,57.51,233.822,52.714,233.822,52.714z"/>
		<path d="M194.109,73.862h-8.624c-5.314,4.084-10.735,8.513-16.155,13.253h11.295C185.257,82.292,189.781,77.876,194.109,73.862z"
			/>
		<path d="M142.7,113.337h15.279c6.019-7.774,12.133-14.922,18.14-21.43h-12.147C156.713,98.543,149.529,105.706,142.7,113.337z"/>
		<path d="M230.016,46.088c-4.044,1.754-8.793,4.177-14.035,7.19h2.899C224.253,49.372,228.178,46.946,230.016,46.088z"/>
		<path d="M201.751,66.992c4.396-3.817,8.48-7.143,12.12-9.955c0.61-0.471,1.194-0.913,1.778-1.355h-3.246h-0.5
			c-4.247,2.567-8.765,5.487-13.46,8.727c-2.652,1.83-5.356,3.756-8.105,5.788h7.785C199.353,69.095,200.565,68.022,201.751,66.992z
			"/>
		<path d="M144.766,119.259h-7.197c-2.155,2.553-4.268,5.148-6.324,7.79c-5.608,7.208-10.82,14.731-15.427,22.521h18.046
			c2.268-4.035,4.611-7.959,7.009-11.78c2.829-4.509,5.74-8.852,8.698-13.056c1.305-1.855,2.619-3.68,3.941-5.475H144.766z"/>
		<path d="M137.939,102.881c11.756-12.21,23.697-21.618,35.331-29.422c1.663-1.116,3.32-2.208,4.968-3.262
			c5.006-3.201,9.939-6.146,14.757-8.913c3.374-1.938,6.685-3.794,9.932-5.602c1.453-0.809,2.887-1.61,4.31-2.403
			c0.427-0.238,0.859-0.478,1.283-0.715c2.026-1.132,4.03-2.256,5.988-3.373c-2.125,0.708-4.52,1.577-7.097,2.56
			c-1.265,0.483-2.569,0.99-3.92,1.529c-1.888,0.752-3.856,1.559-5.876,2.403c-2.884,1.206-5.879,2.493-8.933,3.841
			c-19.333,8.53-40.889,19.349-49.641,25.497c4.25-13.887,16.056-24.437,30.62-26.939c1.953-0.336,3.949-0.54,5.989-0.573
			l24.376-10.104c-7.175-3.48-15.226-5.434-23.735-5.434c-30.079,0-54.463,24.384-54.463,54.463c0,7.168,1.393,14.009,3.911,20.277
			C129.766,111.719,133.841,107.137,137.939,102.881z"/>
	</g>
</g>
</svg>
